# xmcd
#
# Track frame offsets:
#  150
#  17792
#  32773
#  49252
#  66885
#  86421
#  99355
#  116570
#  134212
#  148748
#  163826
#  175973
#
# Disc length: 2559 seconds
#
# Revision: 0
# Processed by: cddbd v1.5.2PL0 Copyright (c) Steve Scherf et al.
# Submitted via: AltoMP3_Maker 3.0
#
DISCID=ac09fd0c
DTITLE=Junior Daugherty and His Circle of Friends - A Labor of Love
DYEAR=1900
DGENRE=
TTITLE0=New Road under My Wheels
TTITLE1=Jessica's Wedding Waltz
TTITLE2=Heart to Heart Talk
TTITLE3=Tear Drops
TTITLE4=Lily Dale
TTITLE5=Til Dawn
TTITLE6=Time Changes Everything
TTITLE7=Too Pretty for Words
TTITLE8=You Done Me Wrong
TTITLE9=Home in San Antone
TTITLE10=Maria Jane's Waltz
TTITLE11=Big Balls in Cowtown
EXTD=
EXTT0=
EXTT1=
EXTT2=
EXTT3=
EXTT4=
EXTT5=
EXTT6=
EXTT7=
EXTT8=
EXTT9=
EXTT10=
EXTT11=
PLAYORDER=
